<?xml version="1.0" standalone="no"?>
<!DOCTYPE svg PUBLIC "-//W3C//DTD SVG 20010904//EN"
 "http://www.w3.org/TR/2001/REC-SVG-20010904/DTD/svg10.dtd">
<svg version="1.0" xmlns="http://www.w3.org/2000/svg"
 width="100.000000pt" height="100.000000pt" viewBox="0 0 100.000000 100.000000"
 preserveAspectRatio="xMidYMid meet">
<metadata>
Created by potrace 1.14, written by Peter Selinger 2001-2017
</metadata>
<g transform="translate(0.000000,100.000000) scale(0.100000,-0.100000)"
fill="#000000" stroke="none">
<path d="M376 989 c-119 -28 -260 -137 -318 -245 -54 -99 -73 -251 -47 -364
28 -123 135 -263 245 -322 99 -54 251 -73 364 -47 123 28 263 135 322 245 54
99 73 251 47 364 -18 80 -71 172 -134 235 -69 68 -135 107 -220 130 -64 16
-197 18 -259 4z m309 -484 l0 -120 -187 -3 -188 -2 0 125 0 125 188 -2 187 -3
0 -120z"/>
<path d="M358 578 c-22 -24 -28 -40 -28 -79 0 -38 4 -49 19 -54 11 -3 23 -15
26 -26 6 -17 16 -19 116 -19 l110 0 34 35 c30 29 35 41 35 80 0 33 -4 45 -15
45 -8 0 -22 11 -31 25 -16 24 -20 25 -128 25 l-111 -1 -27 -31z m163 2 c18 0
40 -61 33 -93 -4 -18 -9 -26 -11 -19 -3 6 -11 12 -19 12 -10 0 -14 13 -14 45
0 50 -15 58 -45 25 -16 -18 -16 -20 -1 -26 20 -8 21 -40 0 -48 -27 -10 -5 -26
37 -26 24 0 38 -4 34 -10 -10 -16 -61 -11 -78 8 -15 17 -20 38 -18 80 1 28 38
65 58 58 8 -3 19 -6 24 -6z"/>
</g>
</svg>
